<svg width="27" height="28" viewBox="0 0 27 28" fill="none" xmlns="http://www.w3.org/2000/svg">
<path d="M13.4996 6.67983C9.68915 6.67983 6.53189 9.87953 6.53189 13.8651C6.53189 17.8507 9.63471 21.0504 13.4996 21.0504C17.3646 21.0504 20.4674 17.7946 20.4674 13.8651C20.4674 9.93567 17.3101 6.67983 13.4996 6.67983ZM13.4996 18.4682C11.05 18.4682 9.03592 16.3912 9.03592 13.8651C9.03592 11.339 11.05 9.26205 13.4996 9.26205C15.9492 9.26205 17.9634 11.339 17.9634 13.8651C17.9634 16.3912 15.9492 18.4682 13.4996 18.4682Z" fill="white"/>
<path d="M20.7397 8.13816C21.6115 8.13816 22.3183 7.40932 22.3183 6.51024C22.3183 5.61117 21.6115 4.88233 20.7397 4.88233C19.8678 4.88233 19.161 5.61117 19.161 6.51024C19.161 7.40932 19.8678 8.13816 20.7397 8.13816Z" fill="white"/>
<path d="M24.8226 2.30154C23.4073 0.785891 21.3932 0 19.1069 0H7.89316C3.15726 0 0 3.25584 0 8.13959V19.6473C0 22.0611 0.762098 24.1381 2.28629 25.6537C3.75605 27.1133 5.71574 27.843 7.94759 27.843H19.0525C21.3932 27.843 23.3529 27.0571 24.7682 25.6537C26.2379 24.1942 27 22.1172 27 19.7034V8.13959C27 5.78191 26.2379 3.76105 24.8226 2.30154ZM24.6049 19.7034C24.6049 21.4436 24.0061 22.847 23.0262 23.8013C22.0464 24.7556 20.6855 25.2608 19.0525 25.2608H7.94759C6.31453 25.2608 4.95364 24.7556 3.9738 23.8013C2.99396 22.7909 2.50404 21.3875 2.50404 19.6473V8.13959C2.50404 6.45554 2.99396 5.05216 3.9738 4.04173C4.8992 3.08743 6.31453 2.58221 7.94759 2.58221H19.1613C20.7944 2.58221 22.1553 3.08743 23.1351 4.09786C24.0605 5.10829 24.6049 6.51167 24.6049 8.13959V19.7034Z" fill="white"/>
</svg>
