<svg width="28" height="24" viewBox="0 0 28 24" fill="none" xmlns="http://www.w3.org/2000/svg">
<path d="M23.1759 0.793633L21.4032 2.3842L13.8556 8.826L6.30794 2.32058L4.53528 0.730011C4.11767 0.333236 3.60789 0.0858951 3.06908 0.0186301C2.53028 -0.048635 1.98613 0.0671324 1.50405 0.35159C1.02197 0.636047 0.623146 1.07669 0.356989 1.61894C0.0908322 2.16118 -0.0309621 2.78119 0.00669509 3.40216V21.8368C0.00669509 22.4105 0.205129 22.9608 0.558344 23.3664C0.911559 23.7721 1.39062 24 1.89014 24H6.30794V11.7208L13.8556 18.2262L21.4032 11.7208V24H25.821C26.3205 24 26.7996 23.7721 27.1528 23.3664C27.506 22.9608 27.7045 22.4105 27.7045 21.8368V3.40216C27.7305 2.78655 27.6002 2.17552 27.3295 1.64335C27.0588 1.11118 26.6593 0.680777 26.1796 0.40447C25.7 0.128164 25.1607 0.0178495 24.6275 0.0869368C24.0942 0.156024 23.5899 0.401537 23.1759 0.793633Z" fill="white"/>
</svg>
