<svg width="24" height="25" viewBox="0 0 24 25" fill="none" xmlns="http://www.w3.org/2000/svg">
<path d="M5.20995 24.6292H0.0854023V7.03715H5.20995V24.6292ZM23.9999 24.6292H18.8754V15.2315C18.8754 12.7827 18.0281 11.5636 16.349 11.5636C15.0183 11.5636 14.1745 12.2462 13.7509 13.6131C13.7509 15.8332 13.7509 24.6292 13.7509 24.6292H8.62631C8.62631 24.6292 8.69464 8.79636 8.62631 7.03715H12.6713L12.9839 10.5556H13.0898C14.1403 8.79636 15.8195 7.60361 18.1221 7.60361C19.873 7.60361 21.2891 8.10499 22.3703 9.36458C23.4584 10.6259 23.9999 12.3183 23.9999 14.695V24.6292Z" fill="white"/>
<path d="M2.64768 5.27763C4.10995 5.27763 5.29536 4.09619 5.29536 2.63882C5.29536 1.18144 4.10995 0 2.64768 0C1.18541 0 0 1.18144 0 2.63882C0 4.09619 1.18541 5.27763 2.64768 5.27763Z" fill="white"/>
</svg>
